:FULLY-SPECIFIED
:FORCE-ALL-JOINTS-BE-3DOF
:DEGREES
645
root 5.55074 16.2409 -2.3177 14.3808 9.59658 0.618504
lfemur -14.4444 24.5549 -29.6984
ltibia 35.9724 0 0
lfoot -38.1451 18.5928 0
ltoes 19.3526 0 0
rfemur -61.685 -28.7754 36.4536
rtibia 70.1559 0 0
rfoot -6.16499 -1.85475 0
rtoes 3.87627 0 0
lowerback 0.481571 -4.54639 -6.01819
upperback -1.35213 -6.13092 -0.3617
thorax -1.07675 -3.00387 3.02141
lowerneck -9.81974 -6.86512 -0.492919
upperneck 4.84382 -9.51197 5.59242
head 3.50996 -4.48975 1.29904
lclavicle 8.40023e-14 -1.61241e-14 0
lhumerus -38.0907 -66.8407 119.959
lradius 71.5868 0 0
lwrist 24.4476 0 0
lhand -5.38439 2.82056 0
lfingers 7.12502 0 0
lthumb 20.422 31.7402 0
rclavicle 8.40023e-14 -1.61241e-14 0
rhumerus -33.2597 -7.84077 -72.0279
rradius 68.208 0 0
rwrist -25.7004 0 0
rhand -29.3949 -46.1404 0
rfingers 7.12502 0 0
rthumb -2.73308 -796.103 0
646
root 5.54566 16.2205 -2.26003 14.8223 8.32902 0.85588
lfemur -14.3594 24.5059 -29.9134
ltibia 35.9114 0 0
lfoot -38.2386 18.2779 0
ltoes 19.032 0 0
rfemur -61.989 -29.1623 36.8819
rtibia 70.1428 0 0
rfoot -6.79847 -3.00754 0
rtoes 4.39111 0 0
lowerback 0.39015 -4.57718 -6.09544
upperback -1.38485 -6.17004 -0.424087
thorax -1.05471 -3.02285 2.99406
lowerneck -9.83735 -6.81562 -0.52286
upperneck 4.4494 -9.43313 5.70102
head 3.40333 -4.45651 1.35346
lclavicle 8.3163e-14 -1.72275e-14 0
lhumerus -38.6769 -67.649 120.86
lradius 72.0271 0 0
lwrist 24.6021 0 0
lhand -5.16333 2.96159 0
lfingers 7.12502 0 0
lthumb 20.6346 31.8611 0
rclavicle 8.3163e-14 -1.72275e-14 0
rhumerus -35.2519 -8.19844 -72.0678
rradius 66.606 0 0
rwrist -24.4714 0 0
rhand -29.3934 -46.8805 0
rfingers 7.12502 0 0
rthumb -2.73166 -796.843 0
647
root 5.54088 16.2013 -2.20559 15.2389 7.13248 1.07996
lfemur -14.2792 24.4597 -30.1162
ltibia 35.8538 0 0
lfoot -38.3269 17.9807 0
ltoes 18.7294 0 0
rfemur -62.276 -29.5275 37.2863
rtibia 70.1303 0 0
rfoot -7.39647 -4.09575 0
rtoes 4.87711 0 0
lowerback 0.303851 -4.60625 -6.16837
upperback -1.41573 -6.20696 -0.482979
thorax -1.0339 -3.04076 2.96825
lowerneck -9.85397 -6.7689 -0.551124
upperneck 4.07707 -9.35871 5.80353
head 3.30268 -4.42514 1.40484
lclavicle 8.23707e-14 -1.82691e-14 0
lhumerus -39.2303 -68.4119 121.711
lradius 72.4427 0 0
lwrist 24.7479 0 0
lhand -4.95466 3.09472 0
lfingers 7.12502 0 0
lthumb 20.8353 31.9753 0
rclavicle 8.23707e-14 -1.82691e-14 0
rhumerus -37.1325 -8.53607 -72.1055
rradius 65.0937 0 0
rwrist -23.3113 0 0
rhand -29.392 -47.5792 0
rfingers 7.12502 0 0
rthumb -2.73032 -797.542 0
648
root 5.5364 16.1834 -2.15472 15.6283 6.01441 1.28934
lfemur -14.2042 24.4165 -30.3058
ltibia 35.8 0 0
lfoot -38.4093 17.7029 0
ltoes 18.4466 0 0
rfemur -62.5442 -29.8687 37.6641
rtibia 70.1187 0 0
rfoot -7.95524 -5.11259 0
rtoes 5.33124 0 0
lowerback 0.223212 -4.63341 -6.23651
upperback -1.44459 -6.24146 -0.538008
thorax -1.01446 -3.05749 2.94413
lowerneck -9.86951 -6.72524 -0.577534
upperneck 3.72916 -9.28917 5.89932
head 3.20864 -4.39581 1.45285
lclavicle 8.16303e-14 -1.92425e-14 0
lhumerus -39.7474 -69.1249 122.506
lradius 72.831 0 0
lwrist 24.8842 0 0
lhand -4.75968 3.21912 0
lfingers 7.12502 0 0
lthumb 21.0229 32.0821 0
rclavicle 8.16303e-14 -1.92425e-14 0
rhumerus -38.8898 -8.85156 -72.1407
rradius 63.6806 0 0
rwrist -22.2273 0 0
rhand -29.3907 -48.2321 0
rfingers 7.12502 0 0
rthumb -2.72907 -798.195 0
649
root 5.53228 16.1668 -2.10777 15.9877 4.98231 1.48262
lfemur -14.135 24.3766 -30.4808
ltibia 35.7503 0 0
lfoot -38.4855 17.4465 0
ltoes 18.1855 0 0
rfemur -62.7917 -30.1837 38.0128
rtibia 70.108 0 0
rfoot -8.47106 -6.05125 0
rtoes 5.75044 0 0
lowerback 0.148773 -4.65848 -6.29942
upperback -1.47123 -6.2733 -0.588806
thorax -0.996514 -3.07294 2.92186
lowerneck -9.88385 -6.68494 -0.601913
upperneck 3.408 -9.22497 5.98774
head 3.12182 -4.36875 1.49717
lclavicle 8.09469e-14 -2.0141e-14 0
lhumerus -40.2248 -69.783 123.24
lradius 73.1895 0 0
lwrist 25.01 0 0
lhand -4.57969 3.33396 0
lfingers 7.12502 0 0
lthumb 21.196 32.1806 0
rclavicle 8.09469e-14 -2.0141e-14 0
rhumerus -40.512 -9.1428 -72.1732
rradius 62.3762 0 0
rwrist -21.2266 0 0
rhand -29.3895 -48.8347 0
rfingers 7.12502 0 0
rthumb -2.72792 -798.797 0
650
root 5.52852 16.1518 -2.06506 16.3146 4.04363 1.65841
lfemur -14.0721 24.3403 -30.64
ltibia 35.7051 0 0
lfoot -38.5548 17.2133 0
ltoes 17.9481 0 0
rfemur -63.0169 -30.4702 38.33
rtibia 70.0982 0 0
rfoot -8.94018 -6.90494 0
rtoes 6.13171 0 0
lowerback 0.0810719 -4.68129 -6.35663
upperback -1.49545 -6.30227 -0.635006
thorax -0.980191 -3.08699 2.90161
lowerneck -9.89689 -6.64828 -0.624086
upperneck 3.11591 -9.16659 6.06816
head 3.04286 -4.34413 1.53747
lclavicle 8.03253e-14 -2.09581e-14 0
lhumerus -40.6589 -70.3815 123.908
lradius 73.5156 0 0
lwrist 25.1244 0 0
lhand -4.41599 3.4384 0
lfingers 7.12502 0 0
lthumb 21.3535 32.2702 0
rclavicle 8.03253e-14 -2.09581e-14 0
rhumerus -41.9873 -9.40767 -72.2028
rradius 61.1898 0 0
rwrist -20.3165 0 0
rhand -29.3885 -49.3828 0
rfingers 7.12502 0 0
rthumb -2.72687 -799.345 0
651
root 5.52517 16.1383 -2.02694 16.6063 3.20587 1.8153
lfemur -14.0159 24.3079 -30.7821
ltibia 35.6647 0 0
lfoot -38.6166 17.0052 0
ltoes 17.7362 0 0
rfemur -63.2178 -30.7259 38.6131
rtibia 70.0895 0 0
rfoot -9.35887 -7.66686 0
rtoes 6.47198 0 0
lowerback 0.0206489 -4.70164 -6.40769
upperback -1.51708 -6.32812 -0.67624
thorax -0.965623 -3.09953 2.88354
lowerneck -9.90853 -6.61557 -0.643875
upperneck 2.85523 -9.11448 6.13993
head 2.97239 -4.32216 1.57345
lclavicle 7.97706e-14 -2.16874e-14 0
lhumerus -41.0464 -70.9157 124.504
lradius 73.8066 0 0
lwrist 25.2265 0 0
lhand -4.26989 3.53161 0
lfingers 7.12502 0 0
lthumb 21.494 32.3501 0
rclavicle 7.97706e-14 -2.16874e-14 0
rhumerus -43.3041 -9.64406 -72.2291
rradius 60.131 0 0
rwrist -19.5042 0 0
rhand -29.3875 -49.872 0
rfingers 7.12502 0 0
rthumb -2.72593 -799.835 0
652
root 5.52225 16.1266 -1.99376 16.8603 2.47648 1.95189
lfemur -13.967 24.2797 -30.9057
ltibia 35.6296 0 0
lfoot -38.6704 16.824 0
ltoes 17.5517 0 0
rfemur -63.3928 -30.9485 38.8596
rtibia 70.0819 0 0
rfoot -9.72339 -8.33021 0
rtoes 6.76824 0 0
lowerback -0.0319572 -4.71936 -6.45214
upperback -1.5359 -6.35062 -0.712139
thorax -0.95294 -3.11045 2.8678
lowerneck -9.91866 -6.58708 -0.661104
upperneck 2.62826 -9.06912 6.20242
head 2.91103 -4.30303 1.60476
lclavicle 7.92876e-14 -2.23224e-14 0
lhumerus -41.3838 -71.3808 125.023
lradius 74.0599 0 0
lwrist 25.3154 0 0
lhand -4.14269 3.61277 0
lfingers 7.12502 0 0
lthumb 21.6164 32.4197 0
rclavicle 7.92876e-14 -2.23224e-14 0
rhumerus -44.4505 -9.84988 -72.2521
rradius 59.2091 0 0
rwrist -18.7971 0 0
rhand -29.3866 -50.2979 0
rfingers 7.12502 0 0
rthumb -2.72511 -800.26 0
653
root 5.5198 16.1168 -1.96584 17.074 1.86295 2.06679
lfemur -13.9258 24.256 -31.0098
ltibia 35.6001 0 0
lfoot -38.7156 16.6716 0
ltoes 17.3965 0 0
rfemur -63.5399 -31.1358 39.0669
rtibia 70.0755 0 0
rfoot -10.03 -8.88819 0
rtoes 7.01743 0 0
lowerback -0.0762075 -4.73426 -6.48954
upperback -1.55174 -6.36956 -0.742336
thorax -0.942271 -3.11963 2.85457
lowerneck -9.92719 -6.56312 -0.675596
upperneck 2.43735 -9.03096 6.25498
head 2.85943 -4.28695 1.63111
lclavicle 7.88813e-14 -2.28565e-14 0
lhumerus -41.6675 -71.772 125.459
lradius 74.273 0 0
lwrist 25.3902 0 0
lhand -4.03569 3.68103 0
lfingers 7.12502 0 0
lthumb 21.7193 32.4783 0
rclavicle 7.88813e-14 -2.28565e-14 0
rhumerus -45.4148 -10.023 -72.2714
rradius 58.4337 0 0
rwrist -18.2022 0 0
rhand -29.3859 -50.6562 0
rfingers 7.12502 0 0
rthumb -2.72442 -800.619 0
654
root 5.51783 16.1089 -1.94354 17.2447 1.37274 2.15859
lfemur -13.893 24.2371 -31.0929
ltibia 35.5765 0 0
lfoot -38.7518 16.5498 0
ltoes 17.2725 0 0
rfemur -63.6575 -31.2854 39.2326
rtibia 70.0704 0 0
rfoot -10.275 -9.33401 0
rtoes 7.21654 0 0
lowerback -0.111563 -4.74617 -6.51941
upperback -1.56439 -6.38468 -0.766463
thorax -0.933746 -3.12697 2.84399
lowerneck -9.934 -6.54398 -0.687175
upperneck 2.28481 -9.00047 6.29698
head 2.81819 -4.27409 1.65216
lclavicle 7.85567e-14 -2.32832e-14 0
lhumerus -41.8942 -72.0846 125.808
lradius 74.4433 0 0
lwrist 25.45 0 0
lhand -3.9502 3.73557 0
lfingers 7.12502 0 0
lthumb 21.8016 32.5251 0
rclavicle 7.85567e-14 -2.32832e-14 0
rhumerus -46.1852 -10.1613 -72.2868
rradius 57.8142 0 0
rwrist -17.7269 0 0
rhand -29.3854 -50.9424 0
rfingers 7.12502 0 0
rthumb -2.72387 -800.905 0
